<?xml version="1.0" encoding="UTF-8"?>
<svg xmlns="http://www.w3.org/2000/svg" width="840" height="500" viewBox="0 0 840 500" role="img" aria-label="bench_mpi_decomposition multi-rank agreement">
<style><![CDATA[text{font-family:Arial,Helvetica,sans-serif;fill:#222}.small{font-size:12px}.tick{font-size:11px;fill:#444}.title{font-size:19px;font-weight:700}.axis{stroke:#333;stroke-width:1}.grid{stroke:#d4d4d4;stroke-width:1;stroke-dasharray:2 4}.tol{stroke:#b2182b;stroke-width:2;stroke-dasharray:7 5}]]></style>
<rect width="100%" height="100%" fill="#ffffff"/>
<text class="title" x="82" y="28">bench_mpi_decomposition: multi-rank agreement</text>
<text class="small" x="82" y="47">relative delta vs 1x1x1 reference; dashed line is unchanged 1e-09 pass tolerance</text>
<line class="grid" x1="82" y1="408.0" x2="814" y2="408.0"/>
<text class="tick" x="74" y="412.0" text-anchor="end">1e-30</text>
<line class="grid" x1="82" y1="328.6" x2="814" y2="328.6"/>
<text class="tick" x="74" y="332.6" text-anchor="end">1e-25</text>
<line class="grid" x1="82" y1="249.3" x2="814" y2="249.3"/>
<text class="tick" x="74" y="253.3" text-anchor="end">1e-20</text>
<line class="grid" x1="82" y1="169.9" x2="814" y2="169.9"/>
<text class="tick" x="74" y="173.9" text-anchor="end">1e-15</text>
<line class="grid" x1="82" y1="90.5" x2="814" y2="90.5"/>
<text class="tick" x="74" y="94.5" text-anchor="end">1e-10</text>
<line class="axis" x1="82" y1="54" x2="82" y2="408"/>
<line class="axis" x1="82" y1="408" x2="814" y2="408"/>
<line class="tol" x1="82" y1="74.7" x2="814" y2="74.7"/>
<text class="small" fill="#b2182b" x="810" y="68.7" text-anchor="end">pass tolerance 1e-09</text>
<text class="small" x="155.2" y="432" text-anchor="middle">tag/count</text>
<text class="small" x="301.6" y="432" text-anchor="middle">momentum</text>
<text class="small" x="448.0" y="432" text-anchor="middle">KE(t)</text>
<text class="small" x="594.4" y="432" text-anchor="middle">final pos</text>
<text class="small" x="740.8" y="432" text-anchor="middle">final vel</text>
<rect x="109.1" y="408.0" width="41.0" height="0.0" fill="#2878b5"><title>n2 (2x1x1) tag_delta = 0.000e+00</title></rect>
<text class="tick" x="129.6" y="403.2" text-anchor="middle">0</text>
<rect x="255.5" y="290.4" width="41.0" height="117.6" fill="#2878b5"><title>n2 (2x1x1) momentum_match = 2.546e-23</title></rect>
<rect x="401.9" y="171.9" width="41.0" height="236.1" fill="#2878b5"><title>n2 (2x1x1) ke_match = 7.501e-16</title></rect>
<rect x="548.3" y="189.3" width="41.0" height="218.7" fill="#2878b5"><title>n2 (2x1x1) pos = 5.962e-17</title></rect>
<rect x="694.7" y="139.8" width="41.0" height="268.2" fill="#2878b5"><title>n2 (2x1x1) vel = 7.815e-14</title></rect>
<rect x="160.3" y="408.0" width="41.0" height="0.0" fill="#d95f02"><title>n4 (2x2x1) tag_delta = 0.000e+00</title></rect>
<text class="tick" x="180.8" y="403.2" text-anchor="middle">0</text>
<rect x="306.7" y="287.0" width="41.0" height="121.0" fill="#d95f02"><title>n4 (2x2x1) momentum_match = 4.173e-23</title></rect>
<rect x="453.1" y="172.4" width="41.0" height="235.6" fill="#d95f02"><title>n4 (2x2x1) ke_match = 6.911e-16</title></rect>
<rect x="599.5" y="195.5" width="41.0" height="212.5" fill="#d95f02"><title>n4 (2x2x1) pos = 2.432e-17</title></rect>
<rect x="745.9" y="150.0" width="41.0" height="258.0" fill="#d95f02"><title>n4 (2x2x1) vel = 1.781e-14</title></rect>
<rect x="90" y="60" width="14" height="14" fill="#2878b5"/>
<text class="small" x="110" y="72">n2 (2x1x1)</text>
<rect x="240" y="60" width="14" height="14" fill="#d95f02"/>
<text class="small" x="260" y="72">n4 (2x2x1)</text>
<text class="small" x="820" y="482" text-anchor="end">tag/count is an exact identity check; zeros are drawn at the log-scale floor</text>
</svg>
